<svg width="1460" height="931" viewBox="0 0 1460 931" fill="none" xmlns="http://www.w3.org/2000/svg">
<path d="M1014.24 635.337C1006.57 642.572 994.374 634.557 997.974 624.65L1096.69 352.986C1098.89 346.918 1106.18 344.498 1111.58 348.044L1223.07 421.313C1228.46 424.859 1229.13 432.511 1224.44 436.942L1014.24 635.337Z" fill="#E39349"/>
<path fill-rule="evenodd" clip-rule="evenodd" d="M1365.34 219.547C1345.85 230.698 1325.77 234.636 1313.24 230.891C1311.86 233.233 1310.41 235.628 1308.9 238.071C1323.09 235.851 1334.6 238.55 1339.1 246.418C1346.77 259.841 1331.14 283.227 1304.17 298.652C1286.51 308.753 1268.37 312.935 1255.8 310.85C1220.69 352.707 1188.98 379.712 1180.88 373.449C1172.52 366.983 1192.15 327.222 1225.77 280.812C1219.14 270.533 1214.86 254.441 1214.83 236.347C1214.78 205.28 1227.27 180.073 1242.74 180.047C1256.39 180.024 1267.79 199.632 1270.31 225.601C1277.07 218.134 1283.57 211.363 1289.66 205.437C1281.51 195.608 1276.04 177.706 1276.01 157.242C1275.96 126.175 1288.45 100.968 1303.91 100.942C1319.38 100.916 1331.96 126.08 1332.01 157.147C1332.02 163.489 1331.51 169.586 1330.55 175.275C1332.79 173.774 1335.12 172.323 1337.54 170.937C1364.51 155.512 1392.59 153.889 1400.27 167.312C1407.95 180.736 1392.31 204.122 1365.34 219.547Z" fill="#4E897D"/>
<path fill-rule="evenodd" clip-rule="evenodd" d="M22.0447 68.346C25.2985 68.9754 27.584 70.5317 28.1344 72.2492C28.5842 72.1072 29.0471 71.9654 29.522 71.8241C27.9867 70.6568 27.3764 69.1684 28.0998 67.767C29.3341 65.3759 33.9833 64.1433 38.4842 65.014C41.4315 65.5841 43.5843 66.9146 44.3729 68.4367C53.3076 66.9506 59.8522 66.9078 59.6654 68.4799C59.4724 70.1032 52.1663 72.9013 42.7176 75.0865C41.8366 76.9927 39.9329 79.3613 37.3804 81.5412C32.9978 85.284 28.3623 87.0534 27.0268 85.4931C25.8477 84.1158 27.6344 80.6042 31.0845 77.225C29.4485 77.4407 27.9323 77.5978 26.5707 77.6949C25.8845 79.7012 23.8276 82.4079 20.9408 84.8732C16.5583 88.6161 11.9228 90.3854 10.5872 88.8252C9.25164 87.265 11.7217 82.966 16.1043 79.2231C16.9989 78.4592 17.904 77.7774 18.7894 77.1894C18.3852 77.1444 17.9795 77.0832 17.5751 77.0049C13.0742 76.1343 10.4261 73.4902 11.6603 71.0991C12.8945 68.708 17.5438 67.4754 22.0447 68.346Z" fill="#4E897D"/>
<path fill-rule="evenodd" clip-rule="evenodd" d="M34.1876 38.7329C36.1742 41.3856 36.8208 44.074 36.0742 45.7158C36.5028 45.9129 36.9409 46.1189 37.3875 46.3335C37.035 44.4373 37.5833 42.925 39.0608 42.3733C41.5816 41.4321 45.8529 43.6437 48.6008 47.3132C50.4002 49.716 51.1003 52.1481 50.6614 53.8051C58.2765 58.709 63.1517 63.0755 61.9568 64.1141C60.723 65.1865 53.4322 62.3487 44.9667 57.6171C43.0333 58.4367 40.0318 58.9113 36.6767 58.8102C30.916 58.6367 26.2942 56.8318 26.3537 54.7789C26.4062 52.9666 30.0892 51.5669 34.915 51.383C33.5585 50.4433 32.3301 49.5407 31.2566 48.6976C29.4002 49.7222 26.058 50.3442 22.2635 50.2299C16.5028 50.0564 11.8811 48.2515 11.9405 46.1986C12 44.1456 16.7182 42.6221 22.4789 42.7956C23.6548 42.831 24.7832 42.9344 25.8341 43.094C25.5649 42.789 25.3057 42.4711 25.0588 42.1414C22.3108 38.4719 22.1268 34.7342 24.6476 33.793C27.1685 32.8518 31.4397 35.0634 34.1876 38.7329Z" fill="#4E897D"/>
<path fill-rule="evenodd" clip-rule="evenodd" d="M58.5152 20.1604C58.3811 23.4718 57.1853 25.9649 55.5699 26.7668C55.7777 27.1902 55.9874 27.6266 56.1984 28.0749C57.1221 26.3819 58.502 25.5552 59.9961 26.0601C62.5453 26.9217 64.4615 31.3333 64.276 35.9139C64.1545 38.9134 63.162 41.2415 61.7755 42.2494C64.5852 50.8601 65.6094 57.3242 64.0271 57.3753C62.3932 57.4281 58.5307 50.6244 54.9526 41.6106C52.9358 41.0255 50.3084 39.4987 47.7703 37.3022C43.4123 33.5307 40.9675 29.2132 42.3096 27.6587C43.4945 26.2863 47.2344 27.526 51.093 30.43C50.6342 28.8448 50.2514 27.3694 49.9512 26.0378C47.8646 25.6604 44.88 24.0328 42.0095 21.5486C37.6515 17.7772 35.2067 13.4597 36.5488 11.9051C37.891 10.3506 42.5119 12.1477 46.8699 15.9191C47.7595 16.6889 48.5693 17.4815 49.2835 18.2687C49.2673 17.8623 49.267 17.4521 49.2837 17.0405C49.4692 12.46 51.6861 9.44507 54.2353 10.3066C56.7845 11.1681 58.7007 15.5798 58.5152 20.1604Z" fill="#4E897D"/>
<path fill-rule="evenodd" clip-rule="evenodd" d="M141.897 53.9934C125.895 35.2106 97.6968 32.9562 78.914 48.958C60.1311 64.9599 57.8767 93.1585 73.8786 111.941C89.8805 130.724 118.079 132.979 136.862 116.977C141.853 112.725 145.676 107.612 148.301 102.043C148.634 102.041 148.972 102.022 149.312 101.986C157.507 101.128 161.384 91.4339 156.04 85.1615C155.027 83.9717 153.839 83.0899 152.565 82.4963C152.463 72.3999 148.957 62.2803 141.897 53.9934Z" fill="#E35349"/>
<path fill-rule="evenodd" clip-rule="evenodd" d="M1396.78 759.737C1395.54 762.808 1393.57 764.749 1391.77 764.956C1391.83 765.425 1391.88 765.906 1391.92 766.4C1393.36 765.119 1394.94 764.809 1396.18 765.79C1398.29 767.464 1398.59 772.264 1396.87 776.511C1395.74 779.292 1394.02 781.146 1392.37 781.625C1392.1 790.679 1390.87 797.108 1389.37 796.62C1387.81 796.116 1386.48 788.407 1386.17 778.714C1384.47 777.48 1382.51 775.154 1380.87 772.228C1378.04 767.203 1377.21 762.313 1379 761.305C1380.57 760.415 1383.67 762.848 1386.32 766.887C1386.43 765.24 1386.57 763.722 1386.73 762.367C1384.9 761.306 1382.64 758.764 1380.78 755.454C1377.96 750.43 1377.12 745.539 1378.91 744.531C1380.7 743.523 1384.44 746.779 1387.26 751.803C1387.84 752.829 1388.33 753.849 1388.74 754.831C1388.86 754.443 1389 754.057 1389.15 753.676C1390.88 749.429 1393.99 747.342 1396.09 749.016C1398.2 750.69 1398.51 755.49 1396.78 759.737Z" fill="#4E897D"/>
<path fill-rule="evenodd" clip-rule="evenodd" d="M1423.48 777.384C1420.5 778.82 1417.73 778.934 1416.27 777.883C1415.99 778.265 1415.7 778.655 1415.41 779.052C1417.34 779.073 1418.71 779.904 1418.97 781.46C1419.4 784.116 1416.41 787.878 1412.28 789.863C1409.57 791.163 1407.05 791.379 1405.51 790.628C1399.22 797.149 1393.99 801.087 1393.21 799.714C1392.39 798.295 1396.59 791.692 1402.87 784.303C1402.44 782.247 1402.56 779.211 1403.3 775.939C1404.59 770.321 1407.26 766.136 1409.26 766.592C1411.03 766.994 1411.69 770.878 1410.93 775.649C1412.12 774.5 1413.24 773.469 1414.28 772.579C1413.63 770.56 1413.67 767.16 1414.51 763.46C1415.8 757.842 1418.46 753.657 1420.47 754.113C1422.47 754.569 1423.05 759.492 1421.77 765.111C1421.5 766.257 1421.18 767.344 1420.82 768.344C1421.17 768.139 1421.54 767.947 1421.91 767.768C1426.04 765.783 1429.74 766.326 1430.18 768.981C1430.61 771.637 1427.62 775.399 1423.48 777.384Z" fill="#4E897D"/>
<path fill-rule="evenodd" clip-rule="evenodd" d="M1436.99 804.848C1433.77 804.075 1431.56 802.419 1431.08 800.679C1430.63 800.801 1430.16 800.922 1429.68 801.042C1431.16 802.276 1431.7 803.79 1430.92 805.158C1429.58 807.492 1424.88 808.518 1420.42 807.449C1417.5 806.749 1415.41 805.325 1414.69 803.769C1405.7 804.859 1399.16 804.612 1399.42 803.049C1399.68 801.436 1407.1 798.964 1416.64 797.199C1417.6 795.334 1419.61 793.052 1422.26 790.987C1426.8 787.442 1431.51 785.879 1432.78 787.497C1433.89 788.925 1431.95 792.354 1428.36 795.577C1430 795.434 1431.52 795.344 1432.89 795.308C1433.66 793.334 1435.84 790.721 1438.83 788.385C1443.37 784.84 1448.08 783.278 1449.35 784.895C1450.61 786.513 1447.95 790.699 1443.41 794.244C1442.48 794.968 1441.55 795.609 1440.64 796.157C1441.04 796.22 1441.44 796.299 1441.84 796.395C1446.3 797.464 1448.83 800.223 1447.49 802.557C1446.15 804.891 1441.45 805.917 1436.99 804.848Z" fill="#4E897D"/>
<path fill-rule="evenodd" clip-rule="evenodd" d="M1387.66 880.101C1409.18 868.039 1416.85 840.81 1404.79 819.284C1392.73 797.759 1365.5 790.087 1343.98 802.149C1322.45 814.211 1314.78 841.44 1326.84 862.965C1330.05 868.685 1334.32 873.426 1339.28 877.079C1339.21 877.407 1339.17 877.742 1339.14 878.083C1338.39 886.289 1347.15 891.969 1354.34 887.941C1355.7 887.177 1356.8 886.182 1357.63 885.047C1367.55 886.903 1378.16 885.422 1387.66 880.101Z" fill="#E35349"/>
<circle cx="192.303" cy="819.303" r="112.164" transform="rotate(-116.36 192.303 819.303)" fill="#855983"/>
<circle cx="214.672" cy="839.184" r="77.334" transform="rotate(-116.36 214.672 839.184)" fill="#C2B2C2"/>
<path d="M160.113 746.364C204.769 724.236 259.054 742.718 281.343 787.699C303.633 832.679 285.457 887.067 240.8 909.196C196.144 931.325 141.859 912.843 119.57 867.862C97.2805 822.881 115.456 768.493 160.113 746.364Z" stroke="#C2B2C2" stroke-width="6"/>
<path d="M147.498 730.215C197.707 705.335 258.72 726.089 283.759 776.619C308.798 827.148 288.355 888.267 238.146 913.147C187.937 938.027 126.924 917.272 101.885 866.743C76.8465 816.213 97.2895 755.095 147.498 730.215Z" stroke="#C2B2C2" stroke-width="6"/>
<ellipse cx="230.966" cy="860.099" rx="51.3592" ry="41.3235" transform="rotate(-116.36 230.966 860.099)" fill="#855983"/>
</svg>
